<mxfile host="app.diagrams.net" agent="Mozilla/5.0 (Windows NT 10.0; Win64; x64) AppleWebKit/537.36 (KHTML, like Gecko) Chrome/126.0.0.0 Safari/537.36 OPR/112.0.0.0" version="24.7.13" pages="3">
  <diagram name="General" id="P5BCHQdXUDy39sfq3mG_">
    <mxGraphModel grid="1" page="1" gridSize="10" guides="1" tooltips="1" connect="1" arrows="1" fold="1" pageScale="1" pageWidth="827" pageHeight="1169" math="0" shadow="0">
      <root>
        <mxCell id="0" />
        <mxCell id="1" parent="0" />
        <mxCell id="ytbNUhpx7MlPpSHvG6uQ-1" value="Administrador" style="shape=umlActor;verticalLabelPosition=bottom;verticalAlign=top;html=1;outlineConnect=0;" vertex="1" parent="1">
          <mxGeometry x="-460" y="-270" width="100" height="160" as="geometry" />
        </mxCell>
        <mxCell id="ytbNUhpx7MlPpSHvG6uQ-3" value="Cliente" style="shape=umlActor;verticalLabelPosition=bottom;verticalAlign=top;html=1;outlineConnect=0;" vertex="1" parent="1">
          <mxGeometry x="-630" y="400" width="40" height="70" as="geometry" />
        </mxCell>
        <mxCell id="ytbNUhpx7MlPpSHvG6uQ-4" value="Login" style="ellipse;whiteSpace=wrap;html=1;" vertex="1" parent="1">
          <mxGeometry x="150" y="-371.87" width="120" height="70" as="geometry" />
        </mxCell>
        <mxCell id="ytbNUhpx7MlPpSHvG6uQ-7" value="" style="endArrow=classic;html=1;rounded=0;entryX=0.5;entryY=1;entryDx=0;entryDy=0;" edge="1" parent="1" source="PNqBSC9d1X1s89hof62y-1" target="ytbNUhpx7MlPpSHvG6uQ-4">
          <mxGeometry relative="1" as="geometry">
            <mxPoint x="100" y="470" as="sourcePoint" />
            <mxPoint x="190" y="484.5" as="targetPoint" />
          </mxGeometry>
        </mxCell>
        <mxCell id="ytbNUhpx7MlPpSHvG6uQ-9" value="" style="endArrow=classic;html=1;rounded=0;entryX=0;entryY=0.5;entryDx=0;entryDy=0;" edge="1" parent="1" target="ytbNUhpx7MlPpSHvG6uQ-4">
          <mxGeometry relative="1" as="geometry">
            <mxPoint x="-350" y="-250" as="sourcePoint" />
            <mxPoint x="190" y="284.5" as="targetPoint" />
            <Array as="points">
              <mxPoint x="-110" y="-330" />
            </Array>
          </mxGeometry>
        </mxCell>
        <mxCell id="ytbNUhpx7MlPpSHvG6uQ-10" value="&amp;lt;&amp;lt;Include&amp;gt;&amp;gt;" style="edgeLabel;resizable=0;html=1;;align=center;verticalAlign=middle;" connectable="0" vertex="1" parent="ytbNUhpx7MlPpSHvG6uQ-9">
          <mxGeometry relative="1" as="geometry" />
        </mxCell>
        <mxCell id="APOc7nN1Z8f6dNYVPpZ1-6" value="gesti贸n de productos" style="ellipse;whiteSpace=wrap;html=1;" vertex="1" parent="1">
          <mxGeometry x="310" y="20" width="110" height="80" as="geometry" />
        </mxCell>
        <mxCell id="PNqBSC9d1X1s89hof62y-4" value="chatbot" style="ellipse;whiteSpace=wrap;html=1;" vertex="1" parent="1">
          <mxGeometry x="510" y="-109.99999999999996" width="80" height="50" as="geometry" />
        </mxCell>
        <mxCell id="PNqBSC9d1X1s89hof62y-5" value="" style="endArrow=classic;html=1;rounded=0;entryX=0.5;entryY=0;entryDx=0;entryDy=0;exitX=1;exitY=0.3333333333333333;exitDx=0;exitDy=0;exitPerimeter=0;" edge="1" parent="1" source="ytbNUhpx7MlPpSHvG6uQ-1" target="PNqBSC9d1X1s89hof62y-4">
          <mxGeometry relative="1" as="geometry">
            <mxPoint x="-100" y="270" as="sourcePoint" />
            <mxPoint x="220" y="355" as="targetPoint" />
            <Array as="points">
              <mxPoint x="550" y="-220" />
            </Array>
          </mxGeometry>
        </mxCell>
        <mxCell id="PNqBSC9d1X1s89hof62y-6" value="&amp;lt;&amp;lt;Include&amp;gt;&amp;gt;" style="edgeLabel;resizable=0;html=1;;align=center;verticalAlign=middle;" connectable="0" vertex="1" parent="PNqBSC9d1X1s89hof62y-5">
          <mxGeometry relative="1" as="geometry" />
        </mxCell>
        <mxCell id="APOc7nN1Z8f6dNYVPpZ1-10" value="Navegar productos" style="ellipse;whiteSpace=wrap;html=1;" vertex="1" parent="1">
          <mxGeometry x="-520" y="570" width="80" height="50" as="geometry" />
        </mxCell>
        <mxCell id="PNqBSC9d1X1s89hof62y-1" value="gesti贸n de usuarios" style="ellipse;whiteSpace=wrap;html=1;" vertex="1" parent="1">
          <mxGeometry x="180" y="170" width="80" height="70" as="geometry" />
        </mxCell>
        <mxCell id="PNqBSC9d1X1s89hof62y-19" value="" style="endArrow=classic;html=1;rounded=0;entryX=0;entryY=0;entryDx=0;entryDy=0;" edge="1" parent="1" source="ytbNUhpx7MlPpSHvG6uQ-1" target="PNqBSC9d1X1s89hof62y-1">
          <mxGeometry relative="1" as="geometry">
            <mxPoint x="-373" y="59" as="sourcePoint" />
            <mxPoint x="50" y="355" as="targetPoint" />
            <Array as="points">
              <mxPoint x="-200" y="160" />
            </Array>
          </mxGeometry>
        </mxCell>
        <mxCell id="wsqpMqZTLWmlyznR9mD3-1" value="&amp;lt;&amp;lt;Include&amp;gt;&amp;gt;" style="edgeLabel;html=1;align=center;verticalAlign=middle;resizable=0;points=[];" connectable="0" vertex="1" parent="PNqBSC9d1X1s89hof62y-19">
          <mxGeometry x="0.0189" relative="1" as="geometry">
            <mxPoint x="-35" as="offset" />
          </mxGeometry>
        </mxCell>
        <mxCell id="vyWNgUsry00fFdQX7ZAo-9" value="" style="endArrow=classic;html=1;rounded=0;entryX=0;entryY=0;entryDx=0;entryDy=0;" edge="1" parent="1" source="ytbNUhpx7MlPpSHvG6uQ-3" target="APOc7nN1Z8f6dNYVPpZ1-10">
          <mxGeometry width="50" height="50" relative="1" as="geometry">
            <mxPoint x="-800" y="305" as="sourcePoint" />
            <mxPoint x="-287" y="517" as="targetPoint" />
            <Array as="points" />
          </mxGeometry>
        </mxCell>
        <mxCell id="J3kvIFev280s4pnUg4d8-7" value="&amp;lt;&amp;lt;include&amp;gt;&amp;gt;" style="edgeLabel;html=1;align=center;verticalAlign=middle;resizable=0;points=[];" connectable="0" vertex="1" parent="vyWNgUsry00fFdQX7ZAo-9">
          <mxGeometry x="0.3511" y="-1" relative="1" as="geometry">
            <mxPoint x="-4" y="-13" as="offset" />
          </mxGeometry>
        </mxCell>
        <mxCell id="PNqBSC9d1X1s89hof62y-28" value="" style="endArrow=classic;html=1;rounded=0;entryX=0.5;entryY=0;entryDx=0;entryDy=0;" edge="1" parent="1" source="ytbNUhpx7MlPpSHvG6uQ-1" target="APOc7nN1Z8f6dNYVPpZ1-10">
          <mxGeometry relative="1" as="geometry">
            <mxPoint x="-373" y="67" as="sourcePoint" />
            <mxPoint x="50" y="355" as="targetPoint" />
            <Array as="points">
              <mxPoint x="-450" y="300" />
            </Array>
          </mxGeometry>
        </mxCell>
        <mxCell id="6ZwGeasa_LZO9gTwnAe5-41" value="&lt;br&gt;&lt;span style=&quot;color: rgb(0, 0, 0); font-family: Helvetica; font-size: 11px; font-style: normal; font-variant-ligatures: normal; font-variant-caps: normal; font-weight: 400; letter-spacing: normal; orphans: 2; text-align: center; text-indent: 0px; text-transform: none; widows: 2; word-spacing: 0px; -webkit-text-stroke-width: 0px; white-space: nowrap; background-color: rgb(255, 255, 255); text-decoration-thickness: initial; text-decoration-style: initial; text-decoration-color: initial; display: inline !important; float: none;&quot;&gt;&amp;lt;&amp;lt;Include&amp;gt;&amp;gt;&lt;/span&gt;&lt;br&gt;&lt;div&gt;&lt;br/&gt;&lt;/div&gt;" style="edgeLabel;html=1;align=center;verticalAlign=middle;resizable=0;points=[];" connectable="0" vertex="1" parent="PNqBSC9d1X1s89hof62y-28">
          <mxGeometry x="-0.099" y="2" relative="1" as="geometry">
            <mxPoint as="offset" />
          </mxGeometry>
        </mxCell>
        <mxCell id="APOc7nN1Z8f6dNYVPpZ1-28" value="gesti贸n de Compras" style="ellipse;whiteSpace=wrap;html=1;" vertex="1" parent="1">
          <mxGeometry x="-30" y="-200" width="80" height="50" as="geometry" />
        </mxCell>
        <mxCell id="APOc7nN1Z8f6dNYVPpZ1-29" value="" style="endArrow=classic;html=1;rounded=0;entryX=0;entryY=0.5;entryDx=0;entryDy=0;" edge="1" parent="1" source="ytbNUhpx7MlPpSHvG6uQ-1" target="APOc7nN1Z8f6dNYVPpZ1-28">
          <mxGeometry width="50" height="50" relative="1" as="geometry">
            <mxPoint x="-40" y="320" as="sourcePoint" />
            <mxPoint x="10" y="270" as="targetPoint" />
            <Array as="points" />
          </mxGeometry>
        </mxCell>
        <mxCell id="J3kvIFev280s4pnUg4d8-8" value="&amp;lt;&amp;lt;include&amp;gt;&amp;gt;" style="edgeLabel;html=1;align=center;verticalAlign=middle;resizable=0;points=[];" connectable="0" vertex="1" parent="APOc7nN1Z8f6dNYVPpZ1-29">
          <mxGeometry x="-0.0428" y="-4" relative="1" as="geometry">
            <mxPoint as="offset" />
          </mxGeometry>
        </mxCell>
        <mxCell id="0A0ViqS_LzmGnA9nN1iD-27" value="" style="endArrow=classic;html=1;rounded=0;entryX=1;entryY=0.5;entryDx=0;entryDy=0;" edge="1" parent="1" source="ytbNUhpx7MlPpSHvG6uQ-3" target="PNqBSC9d1X1s89hof62y-4">
          <mxGeometry relative="1" as="geometry">
            <mxPoint x="-730" y="455" as="sourcePoint" />
            <mxPoint x="914.0000000000005" y="185" as="targetPoint" />
            <Array as="points">
              <mxPoint x="-800" y="435" />
              <mxPoint x="-800" y="640" />
              <mxPoint x="-400" y="640" />
              <mxPoint y="680" />
              <mxPoint x="640" y="660" />
              <mxPoint x="640" y="-70" />
            </Array>
          </mxGeometry>
        </mxCell>
        <mxCell id="0A0ViqS_LzmGnA9nN1iD-28" value="&amp;lt;&amp;lt;Include&amp;gt;&amp;gt;" style="edgeLabel;resizable=0;html=1;;align=center;verticalAlign=middle;" connectable="0" vertex="1" parent="0A0ViqS_LzmGnA9nN1iD-27">
          <mxGeometry relative="1" as="geometry" />
        </mxCell>
        <mxCell id="0A0ViqS_LzmGnA9nN1iD-31" value="gesti贸n de carrito" style="ellipse;whiteSpace=wrap;html=1;" vertex="1" parent="1">
          <mxGeometry x="20" y="390" width="80" height="50" as="geometry" />
        </mxCell>
        <mxCell id="0A0ViqS_LzmGnA9nN1iD-32" value="" style="endArrow=classic;html=1;rounded=0;entryX=0;entryY=0;entryDx=0;entryDy=0;" edge="1" parent="1" target="0A0ViqS_LzmGnA9nN1iD-31">
          <mxGeometry relative="1" as="geometry">
            <mxPoint x="-377" y="-100" as="sourcePoint" />
            <mxPoint x="-290" y="540" as="targetPoint" />
            <Array as="points">
              <mxPoint x="-320" y="398" />
            </Array>
          </mxGeometry>
        </mxCell>
        <mxCell id="0A0ViqS_LzmGnA9nN1iD-33" value="&amp;lt;&amp;lt;Include&amp;gt;&amp;gt;" style="edgeLabel;resizable=0;html=1;;align=center;verticalAlign=middle;" connectable="0" vertex="1" parent="0A0ViqS_LzmGnA9nN1iD-32">
          <mxGeometry relative="1" as="geometry">
            <mxPoint x="9" y="77" as="offset" />
          </mxGeometry>
        </mxCell>
        <mxCell id="pjCBhWHC52j-DI9iQMNy-44" value="Usuario" style="shape=umlActor;verticalLabelPosition=bottom;verticalAlign=top;html=1;outlineConnect=0;" vertex="1" parent="1">
          <mxGeometry x="520" y="560" width="40" height="70" as="geometry" />
        </mxCell>
        <mxCell id="pjCBhWHC52j-DI9iQMNy-47" value="" style="endArrow=classic;html=1;rounded=0;exitX=0.5;exitY=0;exitDx=0;exitDy=0;exitPerimeter=0;entryX=0.5;entryY=1;entryDx=0;entryDy=0;" edge="1" parent="1" source="pjCBhWHC52j-DI9iQMNy-44" target="PNqBSC9d1X1s89hof62y-4">
          <mxGeometry relative="1" as="geometry">
            <mxPoint x="1160" y="799.12" as="sourcePoint" />
            <mxPoint x="1046.5759594924475" y="199.4557569546787" as="targetPoint" />
            <Array as="points" />
          </mxGeometry>
        </mxCell>
        <mxCell id="6ZwGeasa_LZO9gTwnAe5-30" style="edgeStyle=orthogonalEdgeStyle;rounded=0;orthogonalLoop=1;jettySize=auto;html=1;strokeColor=none;" edge="1" parent="1">
          <mxGeometry relative="1" as="geometry">
            <mxPoint x="334" y="325" as="sourcePoint" />
          </mxGeometry>
        </mxCell>
        <mxCell id="6ZwGeasa_LZO9gTwnAe5-40" value="sistema de referidos" style="ellipse;whiteSpace=wrap;html=1;" vertex="1" parent="1">
          <mxGeometry x="-800" y="-70" width="80" height="70" as="geometry" />
        </mxCell>
        <mxCell id="6ZwGeasa_LZO9gTwnAe5-42" value="" style="endArrow=classic;html=1;rounded=0;exitX=0.021;exitY=0.629;exitDx=0;exitDy=0;exitPerimeter=0;" edge="1" parent="1" source="PNqBSC9d1X1s89hof62y-1" target="6ZwGeasa_LZO9gTwnAe5-40">
          <mxGeometry relative="1" as="geometry">
            <mxPoint x="-507" y="-170" as="sourcePoint" />
            <mxPoint x="-560" y="220" as="targetPoint" />
            <Array as="points">
              <mxPoint x="-220" y="214" />
            </Array>
          </mxGeometry>
        </mxCell>
        <mxCell id="6ZwGeasa_LZO9gTwnAe5-43" value="&lt;br&gt;&lt;span style=&quot;color: rgb(0, 0, 0); font-family: Helvetica; font-size: 11px; font-style: normal; font-variant-ligatures: normal; font-variant-caps: normal; font-weight: 400; letter-spacing: normal; orphans: 2; text-align: center; text-indent: 0px; text-transform: none; widows: 2; word-spacing: 0px; -webkit-text-stroke-width: 0px; white-space: nowrap; background-color: rgb(255, 255, 255); text-decoration-thickness: initial; text-decoration-style: initial; text-decoration-color: initial; display: inline !important; float: none;&quot;&gt;&amp;lt;&amp;lt;Include&amp;gt;&amp;gt;&lt;/span&gt;&lt;br&gt;&lt;div&gt;&lt;br/&gt;&lt;/div&gt;" style="edgeLabel;html=1;align=center;verticalAlign=middle;resizable=0;points=[];" connectable="0" vertex="1" parent="6ZwGeasa_LZO9gTwnAe5-42">
          <mxGeometry x="-0.099" y="2" relative="1" as="geometry">
            <mxPoint x="27" y="6" as="offset" />
          </mxGeometry>
        </mxCell>
        <mxCell id="6ZwGeasa_LZO9gTwnAe5-60" value="&amp;lt;&amp;lt;extend&amp;gt;&amp;gt;" style="endArrow=classic;html=1;rounded=0;entryX=0.5;entryY=1;entryDx=0;entryDy=0;" edge="1" parent="1" source="ytbNUhpx7MlPpSHvG6uQ-3" target="6ZwGeasa_LZO9gTwnAe5-40">
          <mxGeometry width="50" height="50" relative="1" as="geometry">
            <mxPoint x="-690" y="414" as="sourcePoint" />
            <mxPoint x="-628.98" y="171.1500000000001" as="targetPoint" />
            <Array as="points">
              <mxPoint x="-760" y="390" />
            </Array>
          </mxGeometry>
        </mxCell>
        <mxCell id="fJr2UT6opU49td46DIlq-1" value="" style="endArrow=classic;html=1;rounded=0;exitX=1;exitY=0.3333333333333333;exitDx=0;exitDy=0;exitPerimeter=0;entryX=0;entryY=0.5;entryDx=0;entryDy=0;" edge="1" parent="1" source="ytbNUhpx7MlPpSHvG6uQ-3" target="0A0ViqS_LzmGnA9nN1iD-31">
          <mxGeometry width="50" height="50" relative="1" as="geometry">
            <mxPoint x="-460" y="350" as="sourcePoint" />
            <mxPoint x="-410" y="300" as="targetPoint" />
          </mxGeometry>
        </mxCell>
        <mxCell id="cBB7tdSBMJ4xip8LguV7-18" value="&lt;span style=&quot;color: rgba(0, 0, 0, 0); font-family: monospace; font-size: 0px; text-align: start; background-color: rgb(251, 251, 251);&quot;&gt;%3CmxGraphModel%3E%3Croot%3E%3CmxCell%20id%3D%220%22%2F%3E%3CmxCell%20id%3D%221%22%20parent%3D%220%22%2F%3E%3CmxCell%20id%3D%222%22%20value%3D%22%26amp%3Blt%3B%26amp%3Blt%3BInclude%26amp%3Bgt%3B%26amp%3Bgt%3B%22%20style%3D%22edgeLabel%3Bresizable%3D0%3Bhtml%3D1%3B%3Balign%3Dcenter%3BverticalAlign%3Dmiddle%3B%22%20connectable%3D%220%22%20vertex%3D%221%22%20parent%3D%221%22%3E%3CmxGeometry%20x%3D%22-319.6192723847439%22%20y%3D%22399.6947781122353%22%20as%3D%22geometry%22%2F%3E%3C%2FmxCell%3E%3C%2Froot%3E%3C%2FmxGraphModel%3E&lt;/span&gt;" style="edgeLabel;html=1;align=center;verticalAlign=middle;resizable=0;points=[];" connectable="0" vertex="1" parent="fJr2UT6opU49td46DIlq-1">
          <mxGeometry x="-0.0968" y="-4" relative="1" as="geometry">
            <mxPoint x="-1" as="offset" />
          </mxGeometry>
        </mxCell>
        <mxCell id="cBB7tdSBMJ4xip8LguV7-19" value="&lt;span style=&quot;color: rgba(0, 0, 0, 0); font-family: monospace; font-size: 0px; text-align: start; background-color: rgb(251, 251, 251);&quot;&gt;%3CmxGraphModel%3E%3Croot%3E%3CmxCell%20id%3D%220%22%2F%3E%3CmxCell%20id%3D%221%22%20parent%3D%220%22%2F%3E%3CmxCell%20id%3D%222%22%20value%3D%22%26amp%3Blt%3B%26amp%3Blt%3BInclude%26amp%3Bgt%3B%26amp%3Bgt%3B%22%20style%3D%22edgeLabel%3Bresizable%3D0%3Bhtml%3D1%3B%3Balign%3Dcenter%3BverticalAlign%3Dmiddle%3B%22%20connectable%3D%220%22%20vertex%3D%221%22%20parent%3D%221%22%3E%3CmxGeometry%20x%3D%22-319.6192723847439%22%20y%3D%22399.6947781122353%22%20as%3D%22geometry%22%2F%3E%3C%2FmxCell%3E%3C%2Froot%3E%3C%2FmxGraphModel%3E&lt;/span&gt;" style="edgeLabel;html=1;align=center;verticalAlign=middle;resizable=0;points=[];" connectable="0" vertex="1" parent="fJr2UT6opU49td46DIlq-1">
          <mxGeometry x="-0.1145" relative="1" as="geometry">
            <mxPoint x="-1" as="offset" />
          </mxGeometry>
        </mxCell>
        <mxCell id="cBB7tdSBMJ4xip8LguV7-20" value="&amp;lt;&amp;lt;Include&amp;gt;&amp;gt;" style="edgeLabel;html=1;align=center;verticalAlign=middle;resizable=0;points=[];" connectable="0" vertex="1" parent="fJr2UT6opU49td46DIlq-1">
          <mxGeometry x="-0.1383" relative="1" as="geometry">
            <mxPoint x="-1" as="offset" />
          </mxGeometry>
        </mxCell>
        <mxCell id="cBB7tdSBMJ4xip8LguV7-2" value="" style="endArrow=classic;html=1;rounded=0;entryX=0;entryY=0.5;entryDx=0;entryDy=0;" edge="1" parent="1" source="ytbNUhpx7MlPpSHvG6uQ-1" target="APOc7nN1Z8f6dNYVPpZ1-6">
          <mxGeometry width="50" height="50" relative="1" as="geometry">
            <mxPoint x="540" y="220" as="sourcePoint" />
            <mxPoint x="590" y="170" as="targetPoint" />
            <Array as="points">
              <mxPoint x="60" y="60" />
            </Array>
          </mxGeometry>
        </mxCell>
        <mxCell id="cBB7tdSBMJ4xip8LguV7-4" value="&amp;lt;&amp;lt;extend&amp;gt;&amp;gt;" style="edgeLabel;html=1;align=center;verticalAlign=middle;resizable=0;points=[];" connectable="0" vertex="1" parent="cBB7tdSBMJ4xip8LguV7-2">
          <mxGeometry x="0.0262" y="2" relative="1" as="geometry">
            <mxPoint x="114" y="63" as="offset" />
          </mxGeometry>
        </mxCell>
        <mxCell id="cBB7tdSBMJ4xip8LguV7-3" value="" style="endArrow=classic;html=1;rounded=0;exitX=0.75;exitY=0.1;exitDx=0;exitDy=0;exitPerimeter=0;entryX=0;entryY=1;entryDx=0;entryDy=0;" edge="1" parent="1" source="ytbNUhpx7MlPpSHvG6uQ-3" target="PNqBSC9d1X1s89hof62y-1">
          <mxGeometry width="50" height="50" relative="1" as="geometry">
            <mxPoint x="10" y="220" as="sourcePoint" />
            <mxPoint x="60" y="170" as="targetPoint" />
          </mxGeometry>
        </mxCell>
        <mxCell id="cBB7tdSBMJ4xip8LguV7-17" value="&amp;lt;&amp;lt;include&amp;gt;&amp;gt;" style="edgeLabel;html=1;align=center;verticalAlign=middle;resizable=0;points=[];" connectable="0" vertex="1" parent="cBB7tdSBMJ4xip8LguV7-3">
          <mxGeometry x="0.3411" y="-1" relative="1" as="geometry">
            <mxPoint x="-141" y="31" as="offset" />
          </mxGeometry>
        </mxCell>
        <mxCell id="cBB7tdSBMJ4xip8LguV7-5" value="" style="endArrow=classic;html=1;rounded=0;entryX=1;entryY=0.5;entryDx=0;entryDy=0;exitX=0.5;exitY=0.5;exitDx=0;exitDy=0;exitPerimeter=0;" edge="1" parent="1" source="pjCBhWHC52j-DI9iQMNy-44" target="APOc7nN1Z8f6dNYVPpZ1-10">
          <mxGeometry width="50" height="50" relative="1" as="geometry">
            <mxPoint x="-70" y="770" as="sourcePoint" />
            <mxPoint x="-20" y="720" as="targetPoint" />
            <Array as="points" />
          </mxGeometry>
        </mxCell>
        <mxCell id="cBB7tdSBMJ4xip8LguV7-21" value="&amp;lt;&amp;lt;Include&amp;gt;&amp;gt;" style="edgeLabel;html=1;align=center;verticalAlign=middle;resizable=0;points=[];" connectable="0" vertex="1" parent="cBB7tdSBMJ4xip8LguV7-5">
          <mxGeometry x="0.0255" y="2" relative="1" as="geometry">
            <mxPoint y="-2" as="offset" />
          </mxGeometry>
        </mxCell>
        <mxCell id="cBB7tdSBMJ4xip8LguV7-6" value="gesti贸n de informaci贸n" style="ellipse;whiteSpace=wrap;html=1;" vertex="1" parent="1">
          <mxGeometry x="310" y="-170" width="110" height="80" as="geometry" />
        </mxCell>
        <mxCell id="cBB7tdSBMJ4xip8LguV7-7" value="" style="endArrow=classic;html=1;rounded=0;entryX=0;entryY=0.5;entryDx=0;entryDy=0;" edge="1" parent="1" source="ytbNUhpx7MlPpSHvG6uQ-1" target="cBB7tdSBMJ4xip8LguV7-6">
          <mxGeometry width="50" height="50" relative="1" as="geometry">
            <mxPoint x="-110" y="70" as="sourcePoint" />
            <mxPoint x="-60" y="20" as="targetPoint" />
            <Array as="points">
              <mxPoint x="-30" y="-130" />
            </Array>
          </mxGeometry>
        </mxCell>
        <mxCell id="cBB7tdSBMJ4xip8LguV7-8" value="&amp;lt;&amp;lt;include&amp;gt;&amp;gt;" style="edgeLabel;html=1;align=center;verticalAlign=middle;resizable=0;points=[];" connectable="0" vertex="1" parent="cBB7tdSBMJ4xip8LguV7-7">
          <mxGeometry x="-0.1094" y="-6" relative="1" as="geometry">
            <mxPoint x="59" y="-1" as="offset" />
          </mxGeometry>
        </mxCell>
        <mxCell id="cBB7tdSBMJ4xip8LguV7-9" value="" style="endArrow=classic;html=1;rounded=0;entryX=0.5;entryY=0;entryDx=0;entryDy=0;" edge="1" parent="1" source="ytbNUhpx7MlPpSHvG6uQ-1" target="6ZwGeasa_LZO9gTwnAe5-40">
          <mxGeometry width="50" height="50" relative="1" as="geometry">
            <mxPoint x="-110" y="70" as="sourcePoint" />
            <mxPoint x="-60" y="20" as="targetPoint" />
            <Array as="points">
              <mxPoint x="-760" y="-190" />
            </Array>
          </mxGeometry>
        </mxCell>
        <mxCell id="cBB7tdSBMJ4xip8LguV7-10" value="sistema de recompensas" style="ellipse;whiteSpace=wrap;html=1;" vertex="1" parent="1">
          <mxGeometry x="-660" y="-70" width="80" height="70" as="geometry" />
        </mxCell>
        <mxCell id="cBB7tdSBMJ4xip8LguV7-11" value="" style="endArrow=classic;html=1;rounded=0;exitX=0.5;exitY=0;exitDx=0;exitDy=0;exitPerimeter=0;entryX=0.5;entryY=1;entryDx=0;entryDy=0;" edge="1" parent="1" source="ytbNUhpx7MlPpSHvG6uQ-3" target="cBB7tdSBMJ4xip8LguV7-10">
          <mxGeometry width="50" height="50" relative="1" as="geometry">
            <mxPoint x="-110" y="250" as="sourcePoint" />
            <mxPoint x="-60" y="200" as="targetPoint" />
          </mxGeometry>
        </mxCell>
        <mxCell id="cBB7tdSBMJ4xip8LguV7-12" value="" style="endArrow=classic;html=1;rounded=0;entryX=0.5;entryY=0;entryDx=0;entryDy=0;" edge="1" parent="1" target="cBB7tdSBMJ4xip8LguV7-10">
          <mxGeometry width="50" height="50" relative="1" as="geometry">
            <mxPoint x="-480" y="-140" as="sourcePoint" />
            <mxPoint x="-60" y="200" as="targetPoint" />
            <Array as="points">
              <mxPoint x="-620" y="-140" />
            </Array>
          </mxGeometry>
        </mxCell>
        <mxCell id="cBB7tdSBMJ4xip8LguV7-13" value="gesti贸n de categor铆as" style="ellipse;whiteSpace=wrap;html=1;" vertex="1" parent="1">
          <mxGeometry x="303" y="-80" width="110" height="80" as="geometry" />
        </mxCell>
        <mxCell id="cBB7tdSBMJ4xip8LguV7-14" value="" style="endArrow=classic;html=1;rounded=0;entryX=0;entryY=0.5;entryDx=0;entryDy=0;" edge="1" parent="1" target="cBB7tdSBMJ4xip8LguV7-13">
          <mxGeometry width="50" height="50" relative="1" as="geometry">
            <mxPoint x="-360" y="-170" as="sourcePoint" />
            <mxPoint x="320" y="70" as="targetPoint" />
            <Array as="points">
              <mxPoint x="50" y="-40" />
            </Array>
          </mxGeometry>
        </mxCell>
        <mxCell id="cBB7tdSBMJ4xip8LguV7-15" value="&amp;lt;&amp;lt;extend&amp;gt;&amp;gt;" style="edgeLabel;html=1;align=center;verticalAlign=middle;resizable=0;points=[];" connectable="0" vertex="1" parent="cBB7tdSBMJ4xip8LguV7-14">
          <mxGeometry x="0.0262" y="2" relative="1" as="geometry">
            <mxPoint x="95" y="32" as="offset" />
          </mxGeometry>
        </mxCell>
        <mxCell id="sHnuc7hGJ4OFnih3BV9L-1" value="" style="endArrow=classic;html=1;rounded=0;entryX=0.5;entryY=1;entryDx=0;entryDy=0;" edge="1" parent="1" target="PNqBSC9d1X1s89hof62y-1">
          <mxGeometry relative="1" as="geometry">
            <mxPoint x="520" y="580" as="sourcePoint" />
            <mxPoint x="303" y="280" as="targetPoint" />
          </mxGeometry>
        </mxCell>
        <mxCell id="sHnuc7hGJ4OFnih3BV9L-2" value="" style="endArrow=classic;html=1;rounded=0;" edge="1" parent="1" source="pjCBhWHC52j-DI9iQMNy-44" target="APOc7nN1Z8f6dNYVPpZ1-6">
          <mxGeometry relative="1" as="geometry">
            <mxPoint x="520" y="580" as="sourcePoint" />
            <mxPoint x="230" y="250" as="targetPoint" />
            <Array as="points">
              <mxPoint x="410" y="370" />
            </Array>
          </mxGeometry>
        </mxCell>
        <mxCell id="sHnuc7hGJ4OFnih3BV9L-5" value="" style="endArrow=classic;html=1;rounded=0;entryX=1;entryY=0.5;entryDx=0;entryDy=0;" edge="1" parent="1" target="ytbNUhpx7MlPpSHvG6uQ-4">
          <mxGeometry relative="1" as="geometry">
            <mxPoint x="537" y="570" as="sourcePoint" />
            <mxPoint x="386" y="109" as="targetPoint" />
            <Array as="points">
              <mxPoint x="510" y="320" />
              <mxPoint x="480" y="-320" />
            </Array>
          </mxGeometry>
        </mxCell>
        <mxCell id="sHnuc7hGJ4OFnih3BV9L-6" value="" style="endArrow=classic;html=1;rounded=0;" edge="1" parent="1" target="0A0ViqS_LzmGnA9nN1iD-31">
          <mxGeometry relative="1" as="geometry">
            <mxPoint x="530" y="590" as="sourcePoint" />
            <mxPoint x="230" y="250" as="targetPoint" />
            <Array as="points">
              <mxPoint x="280" y="520" />
            </Array>
          </mxGeometry>
        </mxCell>
        <mxCell id="R6XfHSZWKiDq4f1On6d9-1" value="" style="endArrow=classic;html=1;rounded=0;exitX=0.75;exitY=0.1;exitDx=0;exitDy=0;exitPerimeter=0;" edge="1" parent="1" target="ytbNUhpx7MlPpSHvG6uQ-4">
          <mxGeometry width="50" height="50" relative="1" as="geometry">
            <mxPoint x="-590" y="417" as="sourcePoint" />
            <mxPoint x="202" y="240" as="targetPoint" />
          </mxGeometry>
        </mxCell>
        <mxCell id="R6XfHSZWKiDq4f1On6d9-2" value="&amp;lt;&amp;lt;include&amp;gt;&amp;gt;" style="edgeLabel;html=1;align=center;verticalAlign=middle;resizable=0;points=[];" connectable="0" vertex="1" parent="R6XfHSZWKiDq4f1On6d9-1">
          <mxGeometry x="0.3411" y="-1" relative="1" as="geometry">
            <mxPoint x="-141" y="31" as="offset" />
          </mxGeometry>
        </mxCell>
      </root>
    </mxGraphModel>
  </diagram>
  <diagram id="6zKK1GH2t2QBF8uWY9f2" name="ADMINISTRADOR">
    <mxGraphModel grid="1" page="1" gridSize="10" guides="1" tooltips="1" connect="1" arrows="1" fold="1" pageScale="1" pageWidth="827" pageHeight="1169" math="0" shadow="0">
      <root>
        <mxCell id="0" />
        <mxCell id="1" parent="0" />
        <mxCell id="KeqSrOaplzxRtq5zv98c-1" value="Administrador" style="shape=umlActor;verticalLabelPosition=bottom;verticalAlign=top;html=1;outlineConnect=0;" vertex="1" parent="1">
          <mxGeometry x="-660" y="-400" width="50" height="70" as="geometry" />
        </mxCell>
        <mxCell id="KeqSrOaplzxRtq5zv98c-3" value="gesti贸n de Carrito.&amp;nbsp;" style="ellipse;whiteSpace=wrap;html=1;" vertex="1" parent="1">
          <mxGeometry x="65" y="-650" width="115" height="60" as="geometry" />
        </mxCell>
        <mxCell id="KeqSrOaplzxRtq5zv98c-9" value="&amp;nbsp;Login" style="ellipse;whiteSpace=wrap;html=1;" vertex="1" parent="1">
          <mxGeometry x="-550" y="-390" width="80" height="50" as="geometry" />
        </mxCell>
        <mxCell id="KeqSrOaplzxRtq5zv98c-4" value="gesti贸n de usuarios." style="ellipse;whiteSpace=wrap;html=1;" vertex="1" parent="1">
          <mxGeometry x="-395" y="-450" width="125" height="70" as="geometry" />
        </mxCell>
        <mxCell id="KeqSrOaplzxRtq5zv98c-11" value="" style="endArrow=classic;html=1;rounded=0;entryX=0;entryY=0.5;entryDx=0;entryDy=0;" edge="1" parent="1" source="KeqSrOaplzxRtq5zv98c-1" target="KeqSrOaplzxRtq5zv98c-9">
          <mxGeometry width="50" height="50" relative="1" as="geometry">
            <mxPoint x="-360" y="-370" as="sourcePoint" />
            <mxPoint x="-310" y="-420" as="targetPoint" />
          </mxGeometry>
        </mxCell>
        <mxCell id="KeqSrOaplzxRtq5zv98c-7" value="gesti贸n de Compras" style="ellipse;whiteSpace=wrap;html=1;" vertex="1" parent="1">
          <mxGeometry x="-386.25" y="-600" width="105" height="70" as="geometry" />
        </mxCell>
        <mxCell id="KeqSrOaplzxRtq5zv98c-12" value="" style="endArrow=classic;html=1;rounded=0;entryX=0;entryY=0.5;entryDx=0;entryDy=0;exitX=1;exitY=0.5;exitDx=0;exitDy=0;" edge="1" parent="1" source="KeqSrOaplzxRtq5zv98c-9" target="KeqSrOaplzxRtq5zv98c-7">
          <mxGeometry width="50" height="50" relative="1" as="geometry">
            <mxPoint x="-600" y="-341.6666666666665" as="sourcePoint" />
            <mxPoint x="-360" y="-460" as="targetPoint" />
          </mxGeometry>
        </mxCell>
        <mxCell id="KeqSrOaplzxRtq5zv98c-13" value="" style="endArrow=classic;html=1;rounded=0;entryX=0;entryY=0.5;entryDx=0;entryDy=0;" edge="1" parent="1" source="KeqSrOaplzxRtq5zv98c-19" target="KeqSrOaplzxRtq5zv98c-3">
          <mxGeometry width="50" height="50" relative="1" as="geometry">
            <mxPoint x="-80" y="-400" as="sourcePoint" />
            <mxPoint x="-350" y="-450" as="targetPoint" />
          </mxGeometry>
        </mxCell>
        <mxCell id="ozuq6tc2qx7m28vByMXl-2" value="&amp;lt;&amp;lt;include&amp;gt;&amp;gt;" style="edgeLabel;html=1;align=center;verticalAlign=middle;resizable=0;points=[];" connectable="0" vertex="1" parent="KeqSrOaplzxRtq5zv98c-13">
          <mxGeometry x="-0.0712" y="2" relative="1" as="geometry">
            <mxPoint x="1" as="offset" />
          </mxGeometry>
        </mxCell>
        <mxCell id="KeqSrOaplzxRtq5zv98c-14" value="" style="endArrow=classic;html=1;rounded=0;entryX=0;entryY=0.5;entryDx=0;entryDy=0;exitX=1;exitY=0.5;exitDx=0;exitDy=0;" edge="1" parent="1" source="KeqSrOaplzxRtq5zv98c-9" target="KeqSrOaplzxRtq5zv98c-4">
          <mxGeometry width="50" height="50" relative="1" as="geometry">
            <mxPoint x="-580" y="-393" as="sourcePoint" />
            <mxPoint x="-350" y="-375" as="targetPoint" />
          </mxGeometry>
        </mxCell>
        <mxCell id="cFnOC3NFAqQe-Q-HxlxY-39" style="edgeStyle=orthogonalEdgeStyle;rounded=0;orthogonalLoop=1;jettySize=auto;html=1;entryX=0;entryY=0.5;entryDx=0;entryDy=0;" edge="1" parent="1" source="KeqSrOaplzxRtq5zv98c-15" target="cFnOC3NFAqQe-Q-HxlxY-24">
          <mxGeometry relative="1" as="geometry" />
        </mxCell>
        <mxCell id="KeqSrOaplzxRtq5zv98c-15" value="Gestion de chatbot.&amp;nbsp;" style="ellipse;whiteSpace=wrap;html=1;" vertex="1" parent="1">
          <mxGeometry x="-390" y="-330" width="122.5" height="60" as="geometry" />
        </mxCell>
        <mxCell id="KeqSrOaplzxRtq5zv98c-16" value="" style="endArrow=classic;html=1;rounded=0;entryX=0;entryY=0.5;entryDx=0;entryDy=0;exitX=1;exitY=0.5;exitDx=0;exitDy=0;" edge="1" parent="1" source="KeqSrOaplzxRtq5zv98c-9" target="KeqSrOaplzxRtq5zv98c-15">
          <mxGeometry width="50" height="50" relative="1" as="geometry">
            <mxPoint x="-580" y="-379" as="sourcePoint" />
            <mxPoint x="-370" y="-245" as="targetPoint" />
          </mxGeometry>
        </mxCell>
        <mxCell id="KeqSrOaplzxRtq5zv98c-18" value="" style="endArrow=classic;html=1;rounded=0;entryX=0;entryY=0.5;entryDx=0;entryDy=0;exitX=1;exitY=0.5;exitDx=0;exitDy=0;" edge="1" parent="1" source="KeqSrOaplzxRtq5zv98c-7" target="KeqSrOaplzxRtq5zv98c-19">
          <mxGeometry width="50" height="50" relative="1" as="geometry">
            <mxPoint x="-580" y="-400" as="sourcePoint" />
            <mxPoint x="-375" y="-330" as="targetPoint" />
            <Array as="points" />
          </mxGeometry>
        </mxCell>
        <mxCell id="ozuq6tc2qx7m28vByMXl-1" value="&amp;lt;&amp;lt;include&amp;gt;&amp;gt;" style="edgeLabel;html=1;align=center;verticalAlign=middle;resizable=0;points=[];" connectable="0" vertex="1" parent="KeqSrOaplzxRtq5zv98c-18">
          <mxGeometry x="0.0545" y="-2" relative="1" as="geometry">
            <mxPoint as="offset" />
          </mxGeometry>
        </mxCell>
        <mxCell id="KeqSrOaplzxRtq5zv98c-19" value="Gestion de productos" style="ellipse;whiteSpace=wrap;html=1;" vertex="1" parent="1">
          <mxGeometry x="-167.5" y="-630" width="122.5" height="70" as="geometry" />
        </mxCell>
        <mxCell id="SZGFzsKLDBRGVxRQaHC6-1" value="sistema de bonificaciones" style="ellipse;whiteSpace=wrap;html=1;" vertex="1" parent="1">
          <mxGeometry x="-150" y="-430" width="115" height="50" as="geometry" />
        </mxCell>
        <mxCell id="SZGFzsKLDBRGVxRQaHC6-2" value="" style="endArrow=classic;html=1;rounded=0;entryX=0;entryY=0.5;entryDx=0;entryDy=0;exitX=1.008;exitY=0.629;exitDx=0;exitDy=0;exitPerimeter=0;" edge="1" parent="1" source="KeqSrOaplzxRtq5zv98c-4" target="SZGFzsKLDBRGVxRQaHC6-1">
          <mxGeometry width="50" height="50" relative="1" as="geometry">
            <mxPoint x="-580" y="-372" as="sourcePoint" />
            <mxPoint x="-390" y="-120" as="targetPoint" />
          </mxGeometry>
        </mxCell>
        <mxCell id="ozuq6tc2qx7m28vByMXl-3" value="&amp;lt;&amp;lt;include&amp;gt;&amp;gt;" style="edgeLabel;html=1;align=center;verticalAlign=middle;resizable=0;points=[];" connectable="0" vertex="1" parent="SZGFzsKLDBRGVxRQaHC6-2">
          <mxGeometry x="-0.15" relative="1" as="geometry">
            <mxPoint as="offset" />
          </mxGeometry>
        </mxCell>
        <mxCell id="cFnOC3NFAqQe-Q-HxlxY-1" value="Sistema de bonificaciones&lt;div&gt;&lt;br&gt;&lt;/div&gt;" style="ellipse;whiteSpace=wrap;html=1;" vertex="1" parent="1">
          <mxGeometry x="-403.75" y="-230" width="122.5" height="60" as="geometry" />
        </mxCell>
        <mxCell id="cFnOC3NFAqQe-Q-HxlxY-2" value="" style="endArrow=classic;html=1;rounded=0;entryX=0;entryY=0.5;entryDx=0;entryDy=0;exitX=1;exitY=0.5;exitDx=0;exitDy=0;" edge="1" parent="1" source="KeqSrOaplzxRtq5zv98c-9" target="cFnOC3NFAqQe-Q-HxlxY-1">
          <mxGeometry width="50" height="50" relative="1" as="geometry">
            <mxPoint x="-580" y="-380" as="sourcePoint" />
            <mxPoint x="-397" y="-270" as="targetPoint" />
          </mxGeometry>
        </mxCell>
        <mxCell id="cFnOC3NFAqQe-Q-HxlxY-9" value="Visualizar bonos" style="ellipse;whiteSpace=wrap;html=1;" vertex="1" parent="1">
          <mxGeometry x="-123.75" y="-120" width="70" height="50" as="geometry" />
        </mxCell>
        <mxCell id="cFnOC3NFAqQe-Q-HxlxY-10" value="" style="endArrow=classic;html=1;rounded=0;exitX=1;exitY=1;exitDx=0;exitDy=0;entryX=0.001;entryY=0.632;entryDx=0;entryDy=0;entryPerimeter=0;" edge="1" parent="1" source="cFnOC3NFAqQe-Q-HxlxY-1" target="cFnOC3NFAqQe-Q-HxlxY-9">
          <mxGeometry x="0.2407" y="1" width="50" height="50" relative="1" as="geometry">
            <mxPoint x="-345" y="-160" as="sourcePoint" />
            <mxPoint x="-425" y="-172" as="targetPoint" />
            <Array as="points" />
            <mxPoint as="offset" />
          </mxGeometry>
        </mxCell>
        <mxCell id="cFnOC3NFAqQe-Q-HxlxY-11" value="&amp;lt;&amp;lt;extend&amp;gt;&amp;gt;" style="edgeLabel;html=1;align=center;verticalAlign=middle;resizable=0;points=[];fontSize=12;" connectable="0" vertex="1" parent="cFnOC3NFAqQe-Q-HxlxY-10">
          <mxGeometry x="0.0907" y="1" relative="1" as="geometry">
            <mxPoint as="offset" />
          </mxGeometry>
        </mxCell>
        <mxCell id="cFnOC3NFAqQe-Q-HxlxY-12" value="Editar bonos" style="ellipse;whiteSpace=wrap;html=1;" vertex="1" parent="1">
          <mxGeometry x="-270" y="-50" width="70" height="50" as="geometry" />
        </mxCell>
        <mxCell id="cFnOC3NFAqQe-Q-HxlxY-13" value="" style="endArrow=classic;html=1;rounded=0;entryX=-0.019;entryY=0.613;entryDx=0;entryDy=0;entryPerimeter=0;" edge="1" parent="1" source="cFnOC3NFAqQe-Q-HxlxY-1" target="cFnOC3NFAqQe-Q-HxlxY-12">
          <mxGeometry x="0.2407" y="1" width="50" height="50" relative="1" as="geometry">
            <mxPoint x="-280" y="-190" as="sourcePoint" />
            <mxPoint x="-205" y="-150" as="targetPoint" />
            <Array as="points" />
            <mxPoint as="offset" />
          </mxGeometry>
        </mxCell>
        <mxCell id="cFnOC3NFAqQe-Q-HxlxY-14" value="&amp;lt;&amp;lt;extend&amp;gt;&amp;gt;" style="edgeLabel;html=1;align=center;verticalAlign=middle;resizable=0;points=[];fontSize=12;" connectable="0" vertex="1" parent="cFnOC3NFAqQe-Q-HxlxY-13">
          <mxGeometry x="0.0907" y="1" relative="1" as="geometry">
            <mxPoint as="offset" />
          </mxGeometry>
        </mxCell>
        <mxCell id="cFnOC3NFAqQe-Q-HxlxY-15" value="" style="endArrow=classic;html=1;rounded=0;entryX=0;entryY=0.5;entryDx=0;entryDy=0;" edge="1" parent="1" source="cFnOC3NFAqQe-Q-HxlxY-1" target="cFnOC3NFAqQe-Q-HxlxY-17">
          <mxGeometry x="0.2407" y="1" width="50" height="50" relative="1" as="geometry">
            <mxPoint x="48.75" y="-200" as="sourcePoint" />
            <mxPoint x="-40" y="-159.55" as="targetPoint" />
            <Array as="points" />
            <mxPoint as="offset" />
          </mxGeometry>
        </mxCell>
        <mxCell id="cFnOC3NFAqQe-Q-HxlxY-16" value="&amp;lt;&amp;lt;extend&amp;gt;&amp;gt;" style="edgeLabel;html=1;align=center;verticalAlign=middle;resizable=0;points=[];fontSize=12;" connectable="0" vertex="1" parent="cFnOC3NFAqQe-Q-HxlxY-15">
          <mxGeometry x="0.0907" y="1" relative="1" as="geometry">
            <mxPoint as="offset" />
          </mxGeometry>
        </mxCell>
        <mxCell id="cFnOC3NFAqQe-Q-HxlxY-17" value="Eliminar bonos" style="ellipse;whiteSpace=wrap;html=1;" vertex="1" parent="1">
          <mxGeometry x="-180" y="-70" width="70" height="50" as="geometry" />
        </mxCell>
        <mxCell id="cFnOC3NFAqQe-Q-HxlxY-18" value="" style="endArrow=classic;html=1;rounded=0;exitX=1;exitY=0.5;exitDx=0;exitDy=0;entryX=0.045;entryY=0.696;entryDx=0;entryDy=0;entryPerimeter=0;" edge="1" parent="1" source="cFnOC3NFAqQe-Q-HxlxY-1" target="cFnOC3NFAqQe-Q-HxlxY-20">
          <mxGeometry x="0.2407" y="1" width="50" height="50" relative="1" as="geometry">
            <mxPoint x="-326" y="-181" as="sourcePoint" />
            <mxPoint x="-330" y="-175" as="targetPoint" />
            <Array as="points" />
            <mxPoint as="offset" />
          </mxGeometry>
        </mxCell>
        <mxCell id="cFnOC3NFAqQe-Q-HxlxY-19" value="&amp;lt;&amp;lt;extend&amp;gt;&amp;gt;" style="edgeLabel;html=1;align=center;verticalAlign=middle;resizable=0;points=[];fontSize=12;" connectable="0" vertex="1" parent="cFnOC3NFAqQe-Q-HxlxY-18">
          <mxGeometry x="0.0907" y="1" relative="1" as="geometry">
            <mxPoint as="offset" />
          </mxGeometry>
        </mxCell>
        <mxCell id="cFnOC3NFAqQe-Q-HxlxY-20" value="Agregar bonos" style="ellipse;whiteSpace=wrap;html=1;" vertex="1" parent="1">
          <mxGeometry x="-115" y="-180" width="70" height="50" as="geometry" />
        </mxCell>
        <mxCell id="cFnOC3NFAqQe-Q-HxlxY-24" value="Base de datos del chat Bot" style="ellipse;whiteSpace=wrap;html=1;" vertex="1" parent="1">
          <mxGeometry x="-170" y="-325" width="90" height="50" as="geometry" />
        </mxCell>
        <mxCell id="cFnOC3NFAqQe-Q-HxlxY-25" value="Asignaci贸n de asesor" style="ellipse;whiteSpace=wrap;html=1;" vertex="1" parent="1">
          <mxGeometry x="150" y="-129.99999999999997" width="90" height="50" as="geometry" />
        </mxCell>
        <mxCell id="cFnOC3NFAqQe-Q-HxlxY-26" value="" style="endArrow=classic;html=1;rounded=0;" edge="1" parent="1" source="cFnOC3NFAqQe-Q-HxlxY-24" target="cFnOC3NFAqQe-Q-HxlxY-31">
          <mxGeometry relative="1" as="geometry">
            <mxPoint x="1083" y="-54.99999999999996" as="sourcePoint" />
            <mxPoint x="1028" y="65.00000000000003" as="targetPoint" />
          </mxGeometry>
        </mxCell>
        <mxCell id="cFnOC3NFAqQe-Q-HxlxY-27" value="&amp;lt;&amp;lt;extend&amp;gt;&amp;gt;" style="edgeLabel;resizable=0;html=1;;align=center;verticalAlign=middle;" connectable="0" vertex="1" parent="cFnOC3NFAqQe-Q-HxlxY-26">
          <mxGeometry relative="1" as="geometry" />
        </mxCell>
        <mxCell id="cFnOC3NFAqQe-Q-HxlxY-28" value="" style="endArrow=classic;html=1;rounded=0;" edge="1" parent="1" target="cFnOC3NFAqQe-Q-HxlxY-30">
          <mxGeometry relative="1" as="geometry">
            <mxPoint x="-80" y="-300" as="sourcePoint" />
            <mxPoint x="1087" y="15.450000000000028" as="targetPoint" />
          </mxGeometry>
        </mxCell>
        <mxCell id="cFnOC3NFAqQe-Q-HxlxY-29" value="&amp;lt;&amp;lt;extend&amp;gt;&amp;gt;" style="edgeLabel;resizable=0;html=1;;align=center;verticalAlign=middle;" connectable="0" vertex="1" parent="cFnOC3NFAqQe-Q-HxlxY-28">
          <mxGeometry relative="1" as="geometry" />
        </mxCell>
        <mxCell id="cFnOC3NFAqQe-Q-HxlxY-30" value="Eliminar de informaci贸n" style="ellipse;whiteSpace=wrap;html=1;" vertex="1" parent="1">
          <mxGeometry x="90" y="-300" width="90" height="70" as="geometry" />
        </mxCell>
        <mxCell id="cFnOC3NFAqQe-Q-HxlxY-31" value="actualizaci贸n de informaci贸n" style="ellipse;whiteSpace=wrap;html=1;" vertex="1" parent="1">
          <mxGeometry x="140" y="-219.99999999999997" width="80" height="70" as="geometry" />
        </mxCell>
        <mxCell id="cFnOC3NFAqQe-Q-HxlxY-32" value="Acceso a Chat" style="ellipse;whiteSpace=wrap;html=1;" vertex="1" parent="1">
          <mxGeometry x="30" y="-164.99999999999997" width="80" height="80" as="geometry" />
        </mxCell>
        <mxCell id="cFnOC3NFAqQe-Q-HxlxY-33" value="Solicitar acesor" style="ellipse;whiteSpace=wrap;html=1;" vertex="1" parent="1">
          <mxGeometry x="140" y="-59.99999999999997" width="80" height="60" as="geometry" />
        </mxCell>
        <mxCell id="cFnOC3NFAqQe-Q-HxlxY-34" value="" style="endArrow=classic;html=1;rounded=0;exitX=0;exitY=0.5;exitDx=0;exitDy=0;entryX=1;entryY=0.625;entryDx=0;entryDy=0;entryPerimeter=0;" edge="1" parent="1" source="cFnOC3NFAqQe-Q-HxlxY-25" target="cFnOC3NFAqQe-Q-HxlxY-32">
          <mxGeometry relative="1" as="geometry">
            <mxPoint x="980" y="2.950000000000017" as="sourcePoint" />
            <mxPoint x="887.04" y="5.87000000000009" as="targetPoint" />
          </mxGeometry>
        </mxCell>
        <mxCell id="cFnOC3NFAqQe-Q-HxlxY-35" value="" style="endArrow=classic;html=1;rounded=0;entryX=0;entryY=0.5;entryDx=0;entryDy=0;" edge="1" parent="1" source="cFnOC3NFAqQe-Q-HxlxY-32" target="cFnOC3NFAqQe-Q-HxlxY-33">
          <mxGeometry relative="1" as="geometry">
            <mxPoint x="1005" y="147.95000000000005" as="sourcePoint" />
            <mxPoint x="860" y="140.95000000000005" as="targetPoint" />
            <Array as="points" />
          </mxGeometry>
        </mxCell>
        <mxCell id="cFnOC3NFAqQe-Q-HxlxY-36" value="&amp;lt;&amp;lt;extend&amp;gt;&amp;gt;" style="edgeLabel;resizable=0;html=1;;align=center;verticalAlign=middle;" connectable="0" vertex="1" parent="cFnOC3NFAqQe-Q-HxlxY-35">
          <mxGeometry relative="1" as="geometry" />
        </mxCell>
        <mxCell id="cFnOC3NFAqQe-Q-HxlxY-37" value="" style="endArrow=none;html=1;rounded=0;exitX=0;exitY=0;exitDx=0;exitDy=0;" edge="1" parent="1" source="cFnOC3NFAqQe-Q-HxlxY-32" target="cFnOC3NFAqQe-Q-HxlxY-24">
          <mxGeometry width="50" height="50" relative="1" as="geometry">
            <mxPoint x="1170" y="37.95000000000003" as="sourcePoint" />
            <mxPoint x="1220" y="-12.049999999999972" as="targetPoint" />
          </mxGeometry>
        </mxCell>
        <mxCell id="cFnOC3NFAqQe-Q-HxlxY-38" value="&amp;lt;&amp;lt;include&amp;gt;&amp;gt;" style="edgeLabel;html=1;align=center;verticalAlign=middle;resizable=0;points=[];" connectable="0" vertex="1" parent="cFnOC3NFAqQe-Q-HxlxY-37">
          <mxGeometry x="-0.39" y="-3" relative="1" as="geometry">
            <mxPoint as="offset" />
          </mxGeometry>
        </mxCell>
        <mxCell id="Kr4SkBYW9hVfMZAfV7Tc-8" value="Visualizar bonos" style="ellipse;whiteSpace=wrap;html=1;" vertex="1" parent="1">
          <mxGeometry x="190" y="-350" width="70" height="50" as="geometry" />
        </mxCell>
        <mxCell id="Kr4SkBYW9hVfMZAfV7Tc-9" value="" style="endArrow=classic;html=1;rounded=0;exitX=1;exitY=1;exitDx=0;exitDy=0;entryX=0;entryY=0.5;entryDx=0;entryDy=0;" edge="1" parent="1" source="SZGFzsKLDBRGVxRQaHC6-1" target="Kr4SkBYW9hVfMZAfV7Tc-8">
          <mxGeometry x="0.2407" y="1" width="50" height="50" relative="1" as="geometry">
            <mxPoint x="195" y="15" as="sourcePoint" />
            <mxPoint x="180" y="-360" as="targetPoint" />
            <Array as="points" />
            <mxPoint as="offset" />
          </mxGeometry>
        </mxCell>
        <mxCell id="Kr4SkBYW9hVfMZAfV7Tc-10" value="&amp;lt;&amp;lt;extend&amp;gt;&amp;gt;" style="edgeLabel;html=1;align=center;verticalAlign=middle;resizable=0;points=[];fontSize=12;" connectable="0" vertex="1" parent="Kr4SkBYW9hVfMZAfV7Tc-9">
          <mxGeometry x="0.0907" y="1" relative="1" as="geometry">
            <mxPoint as="offset" />
          </mxGeometry>
        </mxCell>
        <mxCell id="Kr4SkBYW9hVfMZAfV7Tc-11" value="Editar bonos" style="ellipse;whiteSpace=wrap;html=1;" vertex="1" parent="1">
          <mxGeometry x="200" y="-460" width="70" height="50" as="geometry" />
        </mxCell>
        <mxCell id="Kr4SkBYW9hVfMZAfV7Tc-12" value="" style="endArrow=classic;html=1;rounded=0;exitX=1;exitY=0.5;exitDx=0;exitDy=0;entryX=0;entryY=0.5;entryDx=0;entryDy=0;" edge="1" parent="1" source="SZGFzsKLDBRGVxRQaHC6-1" target="Kr4SkBYW9hVfMZAfV7Tc-11">
          <mxGeometry x="0.2407" y="1" width="50" height="50" relative="1" as="geometry">
            <mxPoint x="650" y="-250" as="sourcePoint" />
            <mxPoint x="485" y="-265" as="targetPoint" />
            <Array as="points" />
            <mxPoint as="offset" />
          </mxGeometry>
        </mxCell>
        <mxCell id="Kr4SkBYW9hVfMZAfV7Tc-13" value="&amp;lt;&amp;lt;extend&amp;gt;&amp;gt;" style="edgeLabel;html=1;align=center;verticalAlign=middle;resizable=0;points=[];fontSize=12;" connectable="0" vertex="1" parent="Kr4SkBYW9hVfMZAfV7Tc-12">
          <mxGeometry x="0.0907" y="1" relative="1" as="geometry">
            <mxPoint as="offset" />
          </mxGeometry>
        </mxCell>
        <mxCell id="Kr4SkBYW9hVfMZAfV7Tc-14" value="" style="endArrow=classic;html=1;rounded=0;exitX=1;exitY=0;exitDx=0;exitDy=0;entryX=0;entryY=1;entryDx=0;entryDy=0;" edge="1" parent="1" source="SZGFzsKLDBRGVxRQaHC6-1" target="Kr4SkBYW9hVfMZAfV7Tc-16">
          <mxGeometry x="0.2407" y="1" width="50" height="50" relative="1" as="geometry">
            <mxPoint x="575" y="-314.55" as="sourcePoint" />
            <mxPoint x="650" y="-274.55" as="targetPoint" />
            <Array as="points" />
            <mxPoint as="offset" />
          </mxGeometry>
        </mxCell>
        <mxCell id="Kr4SkBYW9hVfMZAfV7Tc-15" value="&amp;lt;&amp;lt;extend&amp;gt;&amp;gt;" style="edgeLabel;html=1;align=center;verticalAlign=middle;resizable=0;points=[];fontSize=12;" connectable="0" vertex="1" parent="Kr4SkBYW9hVfMZAfV7Tc-14">
          <mxGeometry x="0.0907" y="1" relative="1" as="geometry">
            <mxPoint as="offset" />
          </mxGeometry>
        </mxCell>
        <mxCell id="Kr4SkBYW9hVfMZAfV7Tc-16" value="Eliminar bonos" style="ellipse;whiteSpace=wrap;html=1;" vertex="1" parent="1">
          <mxGeometry x="170" y="-530" width="70" height="50" as="geometry" />
        </mxCell>
        <mxCell id="Kr4SkBYW9hVfMZAfV7Tc-17" value="" style="endArrow=classic;html=1;rounded=0;exitX=0.965;exitY=0.66;exitDx=0;exitDy=0;exitPerimeter=0;entryX=0;entryY=0.5;entryDx=0;entryDy=0;" edge="1" parent="1" source="SZGFzsKLDBRGVxRQaHC6-1">
          <mxGeometry x="0.2407" y="1" width="50" height="50" relative="1" as="geometry">
            <mxPoint x="289.74000000000024" y="-260.9500000000002" as="sourcePoint" />
            <mxPoint x="230" y="-380" as="targetPoint" />
            <Array as="points" />
            <mxPoint as="offset" />
          </mxGeometry>
        </mxCell>
        <mxCell id="Kr4SkBYW9hVfMZAfV7Tc-18" value="&amp;lt;&amp;lt;extend&amp;gt;&amp;gt;" style="edgeLabel;html=1;align=center;verticalAlign=middle;resizable=0;points=[];fontSize=12;" connectable="0" vertex="1" parent="Kr4SkBYW9hVfMZAfV7Tc-17">
          <mxGeometry x="0.0907" y="1" relative="1" as="geometry">
            <mxPoint as="offset" />
          </mxGeometry>
        </mxCell>
        <mxCell id="Kr4SkBYW9hVfMZAfV7Tc-19" value="Agregar bonos" style="ellipse;whiteSpace=wrap;html=1;" vertex="1" parent="1">
          <mxGeometry x="200" y="-400" width="70" height="50" as="geometry" />
        </mxCell>
      </root>
    </mxGraphModel>
  </diagram>
  <diagram id="8I2O8JErbZn3__57GKnr" name="CLIENTE">
    <mxGraphModel grid="1" page="1" gridSize="10" guides="1" tooltips="1" connect="1" arrows="1" fold="1" pageScale="1" pageWidth="827" pageHeight="1169" math="0" shadow="0">
      <root>
        <mxCell id="0" />
        <mxCell id="1" parent="0" />
        <mxCell id="HQ1b5TFMpTD7iS1XCTRi-2" style="rounded=0;orthogonalLoop=1;jettySize=auto;html=1;entryX=0;entryY=0.5;entryDx=0;entryDy=0;exitX=1;exitY=0.5;exitDx=0;exitDy=0;" edge="1" parent="1" source="JnMFUPOVPPA58ngVhe3C-1" target="HQ1b5TFMpTD7iS1XCTRi-3">
          <mxGeometry relative="1" as="geometry">
            <mxPoint x="-380" y="440" as="targetPoint" />
          </mxGeometry>
        </mxCell>
        <mxCell id="HQ1b5TFMpTD7iS1XCTRi-1" value="Cliente" style="shape=umlActor;verticalLabelPosition=bottom;verticalAlign=top;html=1;outlineConnect=0;" vertex="1" parent="1">
          <mxGeometry x="-720" y="400" width="40" height="70" as="geometry" />
        </mxCell>
        <mxCell id="HQ1b5TFMpTD7iS1XCTRi-3" value="sistema de referidos.&amp;nbsp;" style="ellipse;whiteSpace=wrap;html=1;" vertex="1" parent="1">
          <mxGeometry x="-380" y="395" width="130" height="80" as="geometry" />
        </mxCell>
        <mxCell id="HQ1b5TFMpTD7iS1XCTRi-4" value="Navegar productos." style="ellipse;whiteSpace=wrap;html=1;" vertex="1" parent="1">
          <mxGeometry x="-390" y="280" width="120" height="70" as="geometry" />
        </mxCell>
        <mxCell id="HQ1b5TFMpTD7iS1XCTRi-5" value="" style="endArrow=classic;html=1;rounded=0;entryX=0;entryY=0.5;entryDx=0;entryDy=0;exitX=1;exitY=0.5;exitDx=0;exitDy=0;" edge="1" parent="1" source="JnMFUPOVPPA58ngVhe3C-1" target="HQ1b5TFMpTD7iS1XCTRi-4">
          <mxGeometry width="50" height="50" relative="1" as="geometry">
            <mxPoint x="-260" y="330" as="sourcePoint" />
            <mxPoint x="-370" y="330" as="targetPoint" />
          </mxGeometry>
        </mxCell>
        <mxCell id="FNERO-lxYD4uk-W_W_SG-3" style="edgeStyle=orthogonalEdgeStyle;rounded=0;orthogonalLoop=1;jettySize=auto;html=1;" edge="1" parent="1" source="HQ1b5TFMpTD7iS1XCTRi-6" target="FNERO-lxYD4uk-W_W_SG-2">
          <mxGeometry relative="1" as="geometry" />
        </mxCell>
        <mxCell id="FNERO-lxYD4uk-W_W_SG-4" value="&amp;lt;&amp;lt;include&amp;gt;&amp;gt;" style="edgeLabel;html=1;align=center;verticalAlign=middle;resizable=0;points=[];" connectable="0" vertex="1" parent="FNERO-lxYD4uk-W_W_SG-3">
          <mxGeometry x="-0.1478" y="-2" relative="1" as="geometry">
            <mxPoint as="offset" />
          </mxGeometry>
        </mxCell>
        <mxCell id="HQ1b5TFMpTD7iS1XCTRi-6" value="gesti贸n de usuario" style="ellipse;whiteSpace=wrap;html=1;" vertex="1" parent="1">
          <mxGeometry x="-380" y="130" width="130" height="70" as="geometry" />
        </mxCell>
        <mxCell id="HQ1b5TFMpTD7iS1XCTRi-7" value="Navegar referidos" style="ellipse;whiteSpace=wrap;html=1;" vertex="1" parent="1">
          <mxGeometry x="-120" y="395" width="120" height="80" as="geometry" />
        </mxCell>
        <mxCell id="nLaGvFIJMdQ-IrDpV6IJ-1" value="" style="endArrow=classic;html=1;rounded=0;entryX=0;entryY=0.5;entryDx=0;entryDy=0;exitX=1;exitY=0.5;exitDx=0;exitDy=0;" edge="1" parent="1" source="HQ1b5TFMpTD7iS1XCTRi-3" target="HQ1b5TFMpTD7iS1XCTRi-7">
          <mxGeometry width="50" height="50" relative="1" as="geometry">
            <mxPoint x="-670" y="439" as="sourcePoint" />
            <mxPoint x="-360" y="340" as="targetPoint" />
          </mxGeometry>
        </mxCell>
        <mxCell id="FNERO-lxYD4uk-W_W_SG-1" value="&amp;lt;&amp;lt;include&amp;gt;&amp;gt;" style="edgeLabel;html=1;align=center;verticalAlign=middle;resizable=0;points=[];" connectable="0" vertex="1" parent="nLaGvFIJMdQ-IrDpV6IJ-1">
          <mxGeometry x="-0.125" y="4" relative="1" as="geometry">
            <mxPoint as="offset" />
          </mxGeometry>
        </mxCell>
        <mxCell id="nLaGvFIJMdQ-IrDpV6IJ-3" value="" style="endArrow=classic;html=1;rounded=0;entryX=0;entryY=0.5;entryDx=0;entryDy=0;exitX=1;exitY=0.5;exitDx=0;exitDy=0;" edge="1" parent="1" source="JnMFUPOVPPA58ngVhe3C-1" target="HQ1b5TFMpTD7iS1XCTRi-6">
          <mxGeometry width="50" height="50" relative="1" as="geometry">
            <mxPoint x="-260" y="330" as="sourcePoint" />
            <mxPoint x="-210" y="280" as="targetPoint" />
          </mxGeometry>
        </mxCell>
        <mxCell id="JnMFUPOVPPA58ngVhe3C-1" value="login" style="ellipse;whiteSpace=wrap;html=1;" vertex="1" parent="1">
          <mxGeometry x="-620" y="410" width="100" height="50" as="geometry" />
        </mxCell>
        <mxCell id="JnMFUPOVPPA58ngVhe3C-3" value="" style="endArrow=classic;html=1;rounded=0;entryX=0;entryY=0.5;entryDx=0;entryDy=0;" edge="1" parent="1" source="HQ1b5TFMpTD7iS1XCTRi-1" target="JnMFUPOVPPA58ngVhe3C-1">
          <mxGeometry width="50" height="50" relative="1" as="geometry">
            <mxPoint x="-670" y="433" as="sourcePoint" />
            <mxPoint x="-360" y="255" as="targetPoint" />
          </mxGeometry>
        </mxCell>
        <mxCell id="7XGySl15nTq5zmAnTEVU-1" value="acceso al Chat Bot" style="ellipse;whiteSpace=wrap;html=1;" vertex="1" parent="1">
          <mxGeometry x="-375" y="490" width="120" height="80" as="geometry" />
        </mxCell>
        <mxCell id="7XGySl15nTq5zmAnTEVU-2" value="" style="endArrow=classic;html=1;rounded=0;entryX=0;entryY=0.5;entryDx=0;entryDy=0;exitX=1;exitY=0.5;exitDx=0;exitDy=0;" edge="1" parent="1" source="JnMFUPOVPPA58ngVhe3C-1" target="7XGySl15nTq5zmAnTEVU-1">
          <mxGeometry width="50" height="50" relative="1" as="geometry">
            <mxPoint x="-670" y="451" as="sourcePoint" />
            <mxPoint x="-365" y="540" as="targetPoint" />
          </mxGeometry>
        </mxCell>
        <mxCell id="SjSzBqcJ8ercy0zeR6PC-1" value="gesti贸n de carrito" style="ellipse;whiteSpace=wrap;html=1;" vertex="1" parent="1">
          <mxGeometry x="-375" y="584.5" width="130" height="80" as="geometry" />
        </mxCell>
        <mxCell id="SjSzBqcJ8ercy0zeR6PC-2" value="" style="endArrow=classic;html=1;rounded=0;entryX=0;entryY=0.5;entryDx=0;entryDy=0;exitX=1;exitY=0.5;exitDx=0;exitDy=0;" edge="1" parent="1" source="JnMFUPOVPPA58ngVhe3C-1" target="SjSzBqcJ8ercy0zeR6PC-1">
          <mxGeometry width="50" height="50" relative="1" as="geometry">
            <mxPoint x="-670" y="457" as="sourcePoint" />
            <mxPoint x="-370" y="635" as="targetPoint" />
          </mxGeometry>
        </mxCell>
        <mxCell id="FNERO-lxYD4uk-W_W_SG-6" style="edgeStyle=orthogonalEdgeStyle;rounded=0;orthogonalLoop=1;jettySize=auto;html=1;" edge="1" parent="1" source="FNERO-lxYD4uk-W_W_SG-2" target="FNERO-lxYD4uk-W_W_SG-5">
          <mxGeometry relative="1" as="geometry" />
        </mxCell>
        <mxCell id="FNERO-lxYD4uk-W_W_SG-7" value="&amp;lt;&amp;lt;include&amp;gt;&amp;gt;&amp;nbsp;" style="edgeLabel;html=1;align=center;verticalAlign=middle;resizable=0;points=[];" connectable="0" vertex="1" parent="FNERO-lxYD4uk-W_W_SG-6">
          <mxGeometry x="0.05" relative="1" as="geometry">
            <mxPoint as="offset" />
          </mxGeometry>
        </mxCell>
        <mxCell id="FNERO-lxYD4uk-W_W_SG-2" value="gestionar informaci贸n personal&lt;span style=&quot;color: rgba(0, 0, 0, 0); font-family: monospace; font-size: 0px; text-align: start; text-wrap: nowrap;&quot;&gt;%3CmxGraphModel%3E%3Croot%3E%3CmxCell%20id%3D%220%22%2F%3E%3CmxCell%20id%3D%221%22%20parent%3D%220%22%2F%3E%3CmxCell%20id%3D%222%22%20value%3D%22gesti%C3%B3n%20de%20usuario%22%20style%3D%22ellipse%3BwhiteSpace%3Dwrap%3Bhtml%3D1%3B%22%20vertex%3D%221%22%20parent%3D%221%22%3E%3CmxGeometry%20x%3D%22-375%22%20y%3D%22210%22%20width%3D%22130%22%20height%3D%2270%22%20as%3D%22geometry%22%2F%3E%3C%2FmxCell%3E%3C%2Froot%3E%3C%2FmxGraphModel%3E pers&lt;/span&gt;" style="ellipse;whiteSpace=wrap;html=1;" vertex="1" parent="1">
          <mxGeometry x="-135" y="130" width="130" height="70" as="geometry" />
        </mxCell>
        <mxCell id="FNERO-lxYD4uk-W_W_SG-5" value="administraci贸n financiera" style="ellipse;whiteSpace=wrap;html=1;" vertex="1" parent="1">
          <mxGeometry x="95" y="130" width="130" height="70" as="geometry" />
        </mxCell>
        <mxCell id="o9cAlWobElXvgv8e3XRl-1" value="" style="endArrow=classic;html=1;rounded=0;entryX=0;entryY=0.5;entryDx=0;entryDy=0;exitX=1;exitY=0.5;exitDx=0;exitDy=0;" edge="1" parent="1">
          <mxGeometry width="50" height="50" relative="1" as="geometry">
            <mxPoint y="434.5" as="sourcePoint" />
            <mxPoint x="130" y="434.5" as="targetPoint" />
          </mxGeometry>
        </mxCell>
        <mxCell id="o9cAlWobElXvgv8e3XRl-2" value="&amp;lt;&amp;lt;include&amp;gt;&amp;gt;" style="edgeLabel;html=1;align=center;verticalAlign=middle;resizable=0;points=[];" connectable="0" vertex="1" parent="o9cAlWobElXvgv8e3XRl-1">
          <mxGeometry x="-0.125" y="4" relative="1" as="geometry">
            <mxPoint as="offset" />
          </mxGeometry>
        </mxCell>
        <mxCell id="o9cAlWobElXvgv8e3XRl-3" value="modificar y visualizar referidos" style="ellipse;whiteSpace=wrap;html=1;" vertex="1" parent="1">
          <mxGeometry x="130" y="395" width="120" height="80" as="geometry" />
        </mxCell>
        <mxCell id="o9cAlWobElXvgv8e3XRl-4" value="agregar producto" style="ellipse;whiteSpace=wrap;html=1;" vertex="1" parent="1">
          <mxGeometry x="-130" y="600" width="120" height="80" as="geometry" />
        </mxCell>
        <mxCell id="o9cAlWobElXvgv8e3XRl-5" value="" style="endArrow=classic;html=1;rounded=0;entryX=0;entryY=0.5;entryDx=0;entryDy=0;exitX=0.977;exitY=0.606;exitDx=0;exitDy=0;exitPerimeter=0;" edge="1" parent="1" source="SjSzBqcJ8ercy0zeR6PC-1" target="o9cAlWobElXvgv8e3XRl-4">
          <mxGeometry width="50" height="50" relative="1" as="geometry">
            <mxPoint x="-255" y="624" as="sourcePoint" />
            <mxPoint x="-125" y="624" as="targetPoint" />
          </mxGeometry>
        </mxCell>
        <mxCell id="o9cAlWobElXvgv8e3XRl-6" value="&amp;lt;&amp;lt;include&amp;gt;&amp;gt;" style="edgeLabel;html=1;align=center;verticalAlign=middle;resizable=0;points=[];" connectable="0" vertex="1" parent="o9cAlWobElXvgv8e3XRl-5">
          <mxGeometry x="-0.125" y="4" relative="1" as="geometry">
            <mxPoint as="offset" />
          </mxGeometry>
        </mxCell>
        <mxCell id="o9cAlWobElXvgv8e3XRl-7" value="eliminar producto&lt;span style=&quot;color: rgba(0, 0, 0, 0); font-family: monospace; font-size: 0px; text-align: start; text-wrap: nowrap;&quot;&gt;%3CmxGraphModel%3E%3Croot%3E%3CmxCell%20id%3D%220%22%2F%3E%3CmxCell%20id%3D%221%22%20parent%3D%220%22%2F%3E%3CmxCell%20id%3D%222%22%20value%3D%22agregar%20producto%22%20style%3D%22ellipse%3BwhiteSpace%3Dwrap%3Bhtml%3D1%3B%22%20vertex%3D%221%22%20parent%3D%221%22%3E%3CmxGeometry%20x%3D%22-130%22%20y%3D%22600%22%20width%3D%22120%22%20height%3D%2280%22%20as%3D%22geometry%22%2F%3E%3C%2FmxCell%3E%3C%2Froot%3E%3C%2FmxGraphModel%3E&lt;/span&gt;" style="ellipse;whiteSpace=wrap;html=1;" vertex="1" parent="1">
          <mxGeometry x="-130" y="680" width="120" height="80" as="geometry" />
        </mxCell>
        <mxCell id="o9cAlWobElXvgv8e3XRl-8" value="comprar producto" style="ellipse;whiteSpace=wrap;html=1;" vertex="1" parent="1">
          <mxGeometry x="-170" y="780" width="120" height="80" as="geometry" />
        </mxCell>
        <mxCell id="o9cAlWobElXvgv8e3XRl-9" value="" style="endArrow=classic;html=1;rounded=0;entryX=0;entryY=0.5;entryDx=0;entryDy=0;exitX=0.915;exitY=0.831;exitDx=0;exitDy=0;exitPerimeter=0;" edge="1" parent="1" source="SjSzBqcJ8ercy0zeR6PC-1" target="o9cAlWobElXvgv8e3XRl-7">
          <mxGeometry width="50" height="50" relative="1" as="geometry">
            <mxPoint x="-238" y="643" as="sourcePoint" />
            <mxPoint x="-120" y="650" as="targetPoint" />
          </mxGeometry>
        </mxCell>
        <mxCell id="o9cAlWobElXvgv8e3XRl-10" value="&amp;lt;&amp;lt;include&amp;gt;&amp;gt;" style="edgeLabel;html=1;align=center;verticalAlign=middle;resizable=0;points=[];" connectable="0" vertex="1" parent="o9cAlWobElXvgv8e3XRl-9">
          <mxGeometry x="-0.125" y="4" relative="1" as="geometry">
            <mxPoint as="offset" />
          </mxGeometry>
        </mxCell>
        <mxCell id="o9cAlWobElXvgv8e3XRl-11" value="" style="endArrow=classic;html=1;rounded=0;entryX=0;entryY=0;entryDx=0;entryDy=0;exitX=0.762;exitY=0.881;exitDx=0;exitDy=0;exitPerimeter=0;" edge="1" parent="1" source="SjSzBqcJ8ercy0zeR6PC-1" target="o9cAlWobElXvgv8e3XRl-8">
          <mxGeometry width="50" height="50" relative="1" as="geometry">
            <mxPoint x="-246" y="661" as="sourcePoint" />
            <mxPoint x="-120" y="730" as="targetPoint" />
          </mxGeometry>
        </mxCell>
        <mxCell id="o9cAlWobElXvgv8e3XRl-12" value="&amp;lt;&amp;lt;include&amp;gt;&amp;gt;" style="edgeLabel;html=1;align=center;verticalAlign=middle;resizable=0;points=[];" connectable="0" vertex="1" parent="o9cAlWobElXvgv8e3XRl-11">
          <mxGeometry x="-0.125" y="4" relative="1" as="geometry">
            <mxPoint as="offset" />
          </mxGeometry>
        </mxCell>
        <mxCell id="o9cAlWobElXvgv8e3XRl-13" value="Informaci贸n de producto" style="ellipse;whiteSpace=wrap;html=1;" vertex="1" parent="1">
          <mxGeometry x="-140" y="280" width="80" height="50" as="geometry" />
        </mxCell>
        <mxCell id="o9cAlWobElXvgv8e3XRl-14" value="Historial de navegaci贸n" style="ellipse;whiteSpace=wrap;html=1;" vertex="1" parent="1">
          <mxGeometry x="-180" y="345" width="80" height="50" as="geometry" />
        </mxCell>
        <mxCell id="o9cAlWobElXvgv8e3XRl-15" value="B煤squeda de productos" style="ellipse;whiteSpace=wrap;html=1;" vertex="1" parent="1">
          <mxGeometry x="-180" y="220" width="80" height="50" as="geometry" />
        </mxCell>
        <mxCell id="o9cAlWobElXvgv8e3XRl-32" value="" style="endArrow=classic;html=1;rounded=0;exitX=1.012;exitY=0.416;exitDx=0;exitDy=0;exitPerimeter=0;" edge="1" parent="1" source="HQ1b5TFMpTD7iS1XCTRi-4">
          <mxGeometry width="50" height="50" relative="1" as="geometry">
            <mxPoint x="-102" y="273" as="sourcePoint" />
            <mxPoint x="-140" y="309" as="targetPoint" />
          </mxGeometry>
        </mxCell>
        <mxCell id="o9cAlWobElXvgv8e3XRl-33" value="&amp;lt;&amp;lt;include&amp;gt;&amp;gt;" style="edgeLabel;html=1;align=center;verticalAlign=middle;resizable=0;points=[];" connectable="0" vertex="1" parent="o9cAlWobElXvgv8e3XRl-32">
          <mxGeometry x="-0.4972" y="-2" relative="1" as="geometry">
            <mxPoint x="12" as="offset" />
          </mxGeometry>
        </mxCell>
        <mxCell id="o9cAlWobElXvgv8e3XRl-34" value="" style="endArrow=classic;html=1;rounded=0;exitX=0.893;exitY=0.845;exitDx=0;exitDy=0;exitPerimeter=0;entryX=0;entryY=0.5;entryDx=0;entryDy=0;" edge="1" parent="1" source="HQ1b5TFMpTD7iS1XCTRi-4" target="o9cAlWobElXvgv8e3XRl-14">
          <mxGeometry width="50" height="50" relative="1" as="geometry">
            <mxPoint x="-259" y="319" as="sourcePoint" />
            <mxPoint x="-130" y="319" as="targetPoint" />
          </mxGeometry>
        </mxCell>
        <mxCell id="o9cAlWobElXvgv8e3XRl-35" value="&amp;lt;&amp;lt;include&amp;gt;&amp;gt;" style="edgeLabel;html=1;align=center;verticalAlign=middle;resizable=0;points=[];" connectable="0" vertex="1" parent="o9cAlWobElXvgv8e3XRl-34">
          <mxGeometry x="-0.4972" y="-2" relative="1" as="geometry">
            <mxPoint x="12" as="offset" />
          </mxGeometry>
        </mxCell>
        <mxCell id="o9cAlWobElXvgv8e3XRl-36" value="" style="endArrow=classic;html=1;rounded=0;exitX=1;exitY=0;exitDx=0;exitDy=0;entryX=0.019;entryY=0.645;entryDx=0;entryDy=0;entryPerimeter=0;" edge="1" parent="1" source="HQ1b5TFMpTD7iS1XCTRi-4" target="o9cAlWobElXvgv8e3XRl-15">
          <mxGeometry width="50" height="50" relative="1" as="geometry">
            <mxPoint x="-273" y="349" as="sourcePoint" />
            <mxPoint x="-170" y="380" as="targetPoint" />
          </mxGeometry>
        </mxCell>
        <mxCell id="o9cAlWobElXvgv8e3XRl-37" value="&amp;lt;&amp;lt;include&amp;gt;&amp;gt;" style="edgeLabel;html=1;align=center;verticalAlign=middle;resizable=0;points=[];" connectable="0" vertex="1" parent="o9cAlWobElXvgv8e3XRl-36">
          <mxGeometry x="-0.4972" y="-2" relative="1" as="geometry">
            <mxPoint x="12" as="offset" />
          </mxGeometry>
        </mxCell>
        <mxCell id="o9cAlWobElXvgv8e3XRl-39" value="" style="endArrow=classic;html=1;rounded=0;exitX=1;exitY=0.5;exitDx=0;exitDy=0;" edge="1" parent="1" source="7XGySl15nTq5zmAnTEVU-1">
          <mxGeometry width="50" height="50" relative="1" as="geometry">
            <mxPoint x="-240" y="445" as="sourcePoint" />
            <mxPoint x="-110" y="530" as="targetPoint" />
          </mxGeometry>
        </mxCell>
        <mxCell id="o9cAlWobElXvgv8e3XRl-40" value="&amp;lt;&amp;lt;include&amp;gt;&amp;gt;" style="edgeLabel;html=1;align=center;verticalAlign=middle;resizable=0;points=[];" connectable="0" vertex="1" parent="o9cAlWobElXvgv8e3XRl-39">
          <mxGeometry x="-0.125" y="4" relative="1" as="geometry">
            <mxPoint as="offset" />
          </mxGeometry>
        </mxCell>
        <mxCell id="o9cAlWobElXvgv8e3XRl-41" value="solicitar asesor" style="ellipse;whiteSpace=wrap;html=1;" vertex="1" parent="1">
          <mxGeometry x="-110" y="490" width="120" height="80" as="geometry" />
        </mxCell>
      </root>
    </mxGraphModel>
  </diagram>
</mxfile>
